# Blender 4.0.2
# www.blender.org
mtllib Item.mtl
o Checkpoint_#1
v 6.000000 0.001000 6.000000
v 8.000000 0.001000 6.000000
v 6.000000 0.001000 4.000000
v 8.000000 0.001000 4.000000
vn -0.0000 1.0000 -0.0000
vt 0.000000 0.000000
vt 1.000000 0.000000
vt 1.000000 1.000000
vt 0.000000 1.000000
s 0
f 1/1/1 2/2/1 4/3/1 3/4/1
o Super_Speed_#1
v 4.000000 0.100000 6.000000
v 6.000000 0.100000 6.000000
v 4.000000 0.100000 4.000000
v 6.000000 0.100000 4.000000
vn -0.0000 1.0000 -0.0000
vt 0.000000 0.000000
vt 1.000000 0.000000
vt 1.000000 1.000000
vt 0.000000 1.000000
s 0
f 5/5/2 6/6/2 8/7/2 7/8/2
o Super_View_#1
v 5.000000 0.001000 26.000000
v 7.000000 0.001000 26.000000
v 5.000000 0.001000 24.000000
v 7.000000 0.001000 24.000000
vn -0.0000 1.0000 -0.0000
vt 0.000000 0.000000
vt 1.000000 0.000000
vt 1.000000 1.000000
vt 0.000000 1.000000
s 0
f 9/9/3 10/10/3 12/11/3 11/12/3
o Win_#1
v 4.500000 0.001000 35.500000
v 6.500000 0.001000 35.500000
v 4.500000 0.001000 33.500000
v 6.500000 0.001000 33.500000
vn -0.0000 1.0000 -0.0000
vt 0.000000 0.000000
vt 1.000000 0.000000
vt 1.000000 1.000000
vt 0.000000 1.000000
s 0
f 13/13/4 14/14/4 16/15/4 15/16/4
